<svg width="200" height="200" viewBox="0 0 200 200" fill="none" xmlns="http://www.w3.org/2000/svg">
<path d="M37.4143 152.846L21.5623 70.2601C18.9163 57.6901 25.9533 54.0387 35.4373 55.2747C49.0113 57.0417 165.511 70.7991 165.511 70.7991C166.937 70.6841 172.24 72.36 172.24 76.492L160.987 138.624C160.987 143.336 156.755 146.248 154.053 146.615L49.5223 160.847C40.8363 162.076 38.3623 158.338 37.4113 152.845L37.4143 152.846Z" fill="url(#paint0_linear_2866_1028)"/>
<path d="M81.0293 168.131H81.0763C87.5143 168.115 92.7283 162.893 92.7283 156.453C92.7283 155.954 92.6983 155.459 92.6383 154.978L116.048 151.789L116.046 152.133C116.046 158.583 121.269 163.811 127.716 163.811C134.163 163.811 139.394 158.583 139.394 152.133C139.394 150.932 139.212 149.773 138.876 148.684L154.054 146.616C156.759 146.249 160.988 143.337 160.988 138.625L163.338 125.646C144.395 122.375 121.406 120.46 96.6163 120.46C72.7953 120.46 50.6313 122.231 32.1183 125.273L37.4143 152.846C38.3633 158.339 40.8383 162.073 49.5253 160.848L69.4963 158.133C70.3113 163.776 75.1623 168.112 81.0293 168.131Z" fill="url(#paint1_linear_2866_1028)"/>
<path d="M76.1023 73.1765C75.8323 71.6335 74.2173 70.2725 72.4773 70.1335L36.3893 66.2224C34.2433 66.0494 32.7353 67.3135 33.0353 69.0515L38.7643 102.397C39.0673 104.131 41.0393 105.505 43.1473 105.461L78.5123 104.762C80.2213 104.727 81.3793 103.45 81.1103 101.907L76.1023 73.1765ZM74.6493 93.1911C74.9203 93.1961 75.1723 93.3934 75.2153 93.6374L75.6473 96.1003C75.6903 96.3423 75.5043 96.5393 75.2313 96.5383L63.8743 96.4895C63.5853 96.4895 63.3123 96.2825 63.2723 96.0305L62.8263 93.4773C62.7803 93.2273 62.9833 93.0285 63.2723 93.0305L74.6493 93.1911ZM70.8383 73.2575C72.9713 73.4125 73.9553 75.0162 72.6953 76.2512L47.1953 101.209C45.6873 102.686 43.4453 102.008 43.0783 99.9323L38.2383 71.7024C38.0623 70.7024 38.9393 69.9014 40.1663 69.9934L70.8383 73.2575ZM53.2113 76.5783C53.1643 76.3233 52.8853 76.0992 52.5783 76.0822L49.4573 75.8962C49.1433 75.8752 48.9283 76.0722 48.9733 76.3322L49.5763 79.8015L45.3743 79.5944C45.0543 79.5804 44.8313 79.7822 44.8783 80.0412L45.3413 82.7072C45.3923 82.9712 45.6853 83.1913 46.0013 83.2063L50.2023 83.3742L50.8073 86.8425C50.8523 87.1025 51.1393 87.3194 51.4493 87.3264L54.5533 87.4172C54.8563 87.4262 55.0673 87.2274 55.0223 86.9714L54.4243 83.5383L58.4403 83.6975C58.7353 83.7095 58.9363 83.5155 58.8953 83.2595L58.4483 80.6955C58.4013 80.4405 58.1263 80.2242 57.8293 80.2092L53.8093 80.0124L53.2113 76.5783ZM83.0553 113.075C82.7843 111.532 81.1983 110.335 79.4963 110.395L66.8083 110.858L68.5683 120.952L64.4183 120.409L60.3593 121.49L58.5623 111.161L44.2303 111.686C42.1283 111.76 40.6503 113.233 40.9553 114.967L47.6293 147.322C47.9343 149.056 49.8653 150.223 51.9283 149.929L85.9223 145.896C87.5963 145.658 88.7273 144.217 88.4573 142.676L83.0553 113.075ZM117.213 76.0476C116.977 74.6826 115.682 73.4852 114.32 73.3752L102.146 72.5202L103.697 81.4182L100.32 80.6174L97.2113 81.0764L95.6293 71.9963L84.3833 71.0915C82.7433 70.9575 81.6163 72.0804 81.8813 73.5964L86.8053 101.842C87.0733 103.361 88.6023 104.56 90.2133 104.527L118.625 104.006C119.967 103.98 120.852 102.846 120.615 101.483L117.213 76.0476ZM122.338 111.375C122.102 110.01 120.832 108.941 119.494 108.989L108.562 109.333L110.115 118.23L107.033 117.81L103.76 118.646L102.178 109.564L91.1623 109.967C89.5553 110.026 88.4553 111.303 88.7193 112.821L94.0343 141.934C94.2973 143.455 95.8053 144.5 97.3833 144.279L124.125 141.758C125.439 141.574 126.301 140.316 126.063 138.948L122.338 111.381V111.375Z" fill="url(#paint2_linear_2866_1028)"/>
<path d="M156.445 43.6941C158.541 43.6941 160.234 41.999 160.234 39.907C160.234 37.815 158.541 36.1199 156.445 36.1199C154.357 36.1199 152.662 37.815 152.662 39.907C152.662 41.999 154.358 43.6941 156.445 43.6941ZM159.578 32.3401L176.418 43.43C176.578 43.545 176.727 43.6668 176.861 43.7908C177.168 44.0638 177.418 44.356 177.618 44.658C178.113 45.4 178.316 46.2112 178.295 47.0062L178.254 103.516C178.254 105.862 176.192 107.924 173.842 107.924H162.02H139.04C136.696 107.924 134.63 105.862 134.63 103.516L134.673 47.5779C134.408 46.1239 134.878 44.535 136.487 43.367L153.323 32.3318C154.143 31.5068 155.244 30.9768 156.446 31.0008C157.654 30.9768 158.764 31.5101 159.578 32.3401Z" fill="#01DAE9"/>
<path d="M139.043 107.93H166.549L172.241 76.4922C172.241 72.3592 166.943 70.6833 165.517 70.7993L134.654 67.1514L134.629 103.516C134.629 105.864 136.695 107.93 139.043 107.93Z" fill="url(#paint3_linear_2866_1028)"/>
<path fill-rule="evenodd" clip-rule="evenodd" d="M155.248 88.1802V76.561C151.637 75.528 148.986 73.9584 147.299 71.8604C145.613 69.7604 144.774 67.2099 144.774 64.2119C144.774 61.1769 145.725 58.6299 147.633 56.5659C149.541 54.5019 152.078 53.314 155.248 53V50.2681H159.289V53C162.25 53.352 164.605 54.3562 166.357 56.0142C168.107 57.6752 169.222 59.8972 169.709 62.6802L162.65 63.5879C162.218 61.4059 161.097 59.9259 159.289 59.1489V69.9932C163.758 71.1962 166.801 72.753 168.418 74.667C170.039 76.581 170.848 79.0402 170.848 82.0342C170.848 85.3842 169.828 88.204 167.791 90.501C165.754 92.792 162.918 94.2221 159.289 94.7861V97.8442H155.248V94.8472C152.059 94.4612 149.467 93.2779 147.467 91.2939C145.465 89.3109 144.192 86.5101 143.633 82.8911L150.863 82.0352C151.16 83.5142 151.717 84.7869 152.531 85.8579C153.348 86.9239 154.25 87.7022 155.248 88.1802ZM155.248 59.0361C154.158 59.4251 153.301 60.0632 152.666 60.9502C152.034 61.8402 151.717 62.8172 151.717 63.8892C151.717 64.8682 152.008 65.7781 152.586 66.6221C153.162 67.4631 154.051 68.1432 155.248 68.6582V59.0361ZM159.289 88.6382C160.685 88.3332 161.822 87.6681 162.697 86.6431C163.575 85.6161 164.013 84.4109 164.013 83.0249C164.013 81.7839 163.646 80.7192 162.908 79.8242C162.17 78.9272 160.967 78.2374 159.289 77.7554V88.6382Z" fill="#42FFFF"/>
<defs>
<linearGradient id="paint0_linear_2866_1028" x1="172.978" y1="106.065" x2="21.347" y2="108.33" gradientUnits="userSpaceOnUse">
<stop stop-color="#8C63CF"/>
<stop offset="1" stop-color="#4634EA"/>
</linearGradient>
<linearGradient id="paint1_linear_2866_1028" x1="32.5476" y1="118.646" x2="158.169" y2="162.207" gradientUnits="userSpaceOnUse">
<stop stop-color="#1B2BBB"/>
<stop offset="1" stop-color="#2A9CE2"/>
</linearGradient>
<linearGradient id="paint2_linear_2866_1028" x1="32.9965" y1="108.091" x2="126.102" y2="108.091" gradientUnits="userSpaceOnUse">
<stop stop-color="#00FFFF"/>
<stop offset="0.3491" stop-color="#00FCFE"/>
<stop offset="0.5792" stop-color="#01F3FC"/>
<stop offset="0.7749" stop-color="#01E4F8"/>
<stop offset="0.9504" stop-color="#03CFF3"/>
<stop offset="1" stop-color="#03C8F1"/>
</linearGradient>
<linearGradient id="paint3_linear_2866_1028" x1="134.493" y1="107.1" x2="169.003" y2="65.1959" gradientUnits="userSpaceOnUse">
<stop stop-color="#01D4E9"/>
<stop offset="1" stop-color="#7952D0"/>
</linearGradient>
</defs>
</svg>
